<svg id="ART" xmlns="http://www.w3.org/2000/svg" xmlns:xlink="http://www.w3.org/1999/xlink" viewBox="0 0 48 48"><defs><style>.cls-1{fill:url(#linear-gradient);}.cls-2{fill:url(#linear-gradient-2);}.cls-3{fill:url(#linear-gradient-3);}.cls-4{fill:url(#linear-gradient-5);}.cls-5{fill:url(#linear-gradient-6);}.cls-6{fill:url(#linear-gradient-7);}.cls-7{fill:url(#linear-gradient-8);}.cls-8{fill:url(#linear-gradient-9);}.cls-9{fill:url(#linear-gradient-10);}.cls-10{fill:url(#linear-gradient-11);}.cls-11{fill:url(#linear-gradient-12);}.cls-12{fill:url(#linear-gradient-13);}.cls-13{fill:url(#linear-gradient-14);}.cls-14{fill:url(#linear-gradient-15);}.cls-15{fill:url(#linear-gradient-16);}.cls-16{fill:url(#linear-gradient-17);}.cls-17{fill:url(#linear-gradient-18);}.cls-18{fill:url(#linear-gradient-19);}.cls-19{fill:url(#linear-gradient-20);}.cls-20{fill:url(#linear-gradient-21);}.cls-21{fill:url(#linear-gradient-22);}</style><linearGradient id="linear-gradient" x1="305.5" y1="-432.06" x2="305.5" y2="-464.94" gradientTransform="translate(-281.5 467.5)" gradientUnits="userSpaceOnUse"><stop offset="0" stop-color="#273a9b"/><stop offset="0.56" stop-color="#202f65"/><stop offset="1" stop-color="#021e2f"/></linearGradient><linearGradient id="linear-gradient-2" x1="24" y1="44.06" x2="24" y2="-22.11" gradientUnits="userSpaceOnUse"><stop offset="0" stop-color="#27e9de"/><stop offset="0.52" stop-color="#03a4ec"/><stop offset="1" stop-color="#2547a8"/></linearGradient><linearGradient id="linear-gradient-3" x1="24" y1="40.28" x2="24" y2="-9.55" xlink:href="#linear-gradient-2"/><linearGradient id="linear-gradient-5" x1="9.63" y1="45.84" x2="9.63" y2="32.87" xlink:href="#linear-gradient-2"/><linearGradient id="linear-gradient-6" x1="9.63" y1="46.84" x2="9.63" y2="33.42" xlink:href="#linear-gradient-2"/><linearGradient id="linear-gradient-7" x1="9.63" y1="45.53" x2="9.63" y2="39.44" xlink:href="#linear-gradient-2"/><linearGradient id="linear-gradient-8" x1="9.63" y1="45.32" x2="9.63" y2="43.03" gradientTransform="matrix(1, 0, 0, 1, 0, 0)" xlink:href="#linear-gradient"/><linearGradient id="linear-gradient-9" x1="9.63" y1="44.76" x2="9.63" y2="41.06" gradientTransform="matrix(1, 0, 0, 1, 0, 0)" xlink:href="#linear-gradient"/><linearGradient id="linear-gradient-10" x1="24" y1="45.84" x2="24" y2="32.87" xlink:href="#linear-gradient-2"/><linearGradient id="linear-gradient-11" x1="24" y1="46.84" x2="24" y2="33.42" xlink:href="#linear-gradient-2"/><linearGradient id="linear-gradient-12" x1="24" y1="45.53" x2="24" y2="39.44" xlink:href="#linear-gradient-2"/><linearGradient id="linear-gradient-13" x1="24" y1="45.32" x2="24" y2="43.03" gradientTransform="matrix(1, 0, 0, 1, 0, 0)" xlink:href="#linear-gradient"/><linearGradient id="linear-gradient-14" x1="24" y1="44.76" x2="24" y2="41.06" gradientTransform="matrix(1, 0, 0, 1, 0, 0)" xlink:href="#linear-gradient"/><linearGradient id="linear-gradient-15" x1="38.37" y1="45.84" x2="38.37" y2="32.87" xlink:href="#linear-gradient-2"/><linearGradient id="linear-gradient-16" x1="38.37" y1="46.84" x2="38.37" y2="33.42" xlink:href="#linear-gradient-2"/><linearGradient id="linear-gradient-17" x1="38.37" y1="45.53" x2="38.37" y2="39.44" xlink:href="#linear-gradient-2"/><linearGradient id="linear-gradient-18" x1="38.37" y1="45.32" x2="38.37" y2="43.03" gradientTransform="matrix(1, 0, 0, 1, 0, 0)" xlink:href="#linear-gradient"/><linearGradient id="linear-gradient-19" x1="38.37" y1="44.76" x2="38.37" y2="41.06" gradientTransform="matrix(1, 0, 0, 1, 0, 0)" xlink:href="#linear-gradient"/><linearGradient id="linear-gradient-20" x1="24" y1="18.85" x2="24" y2="-3.03" gradientTransform="matrix(1, 0, 0, 1, 0, 0)" xlink:href="#linear-gradient"/><linearGradient id="linear-gradient-21" x1="24" y1="27.6" x2="24" y2="5.32" gradientTransform="matrix(1, 0, 0, 1, 0, 0)" xlink:href="#linear-gradient"/><linearGradient id="linear-gradient-22" x1="24" y1="20.24" x2="24" y2="5.7" gradientUnits="userSpaceOnUse"><stop offset="0" stop-color="#fff"/><stop offset="0.41" stop-color="#cce2e6"/><stop offset="1" stop-color="#8fa1bb"/></linearGradient></defs><title>network, storage, cloud, share, transfer</title><path class="cls-1" d="M36.51,31.19h-25a4,4,0,0,0-4,4v1a1,1,0,0,0,1,1h1a1,1,0,0,0,1-1v-1a1,1,0,0,1,1-1H22a.54.54,0,0,1,.54.54v1.44a1,1,0,0,0,1,1h1a1,1,0,0,0,1-1V34.72a.54.54,0,0,1,.54-.54H36.51a1,1,0,0,1,1,1v1a1,1,0,0,0,1,1h1a1,1,0,0,0,1-1v-1A4,4,0,0,0,36.51,31.19Z"/><path class="cls-2" d="M35.42,11.77a2.82,2.82,0,0,1-2.14-1.94,9.73,9.73,0,0,0-18.57,0,2.82,2.82,0,0,1-2.14,1.94,8.59,8.59,0,0,0-6.81,8.67,8.82,8.82,0,0,0,8.94,8.32H33.3a8.82,8.82,0,0,0,8.94-8.32A8.59,8.59,0,0,0,35.42,11.77Z"/><path class="cls-3" d="M35.42,18.13a2.81,2.81,0,0,1-2.13-1.91,9.73,9.73,0,0,0-18.59,0,2.81,2.81,0,0,1-2.13,1.91l-.2,0c-5.29,1.24-5.22,8.93,0,10.29a9.11,9.11,0,0,0,2.28.29H33.3a9.11,9.11,0,0,0,2.28-.29c5.26-1.36,5.33-9,0-10.29Z"/><path class="cls-3" d="M35.42,18.13a2.81,2.81,0,0,1-2.13-1.91,9.73,9.73,0,0,0-18.59,0,2.81,2.81,0,0,1-2.13,1.91l-.2,0c-5.29,1.24-5.22,8.93,0,10.29a9.11,9.11,0,0,0,2.28.29H33.3a9.11,9.11,0,0,0,2.28-.29c5.26-1.36,5.33-9,0-10.29Z"/><path class="cls-4" d="M4.85,36h9.56a.9.9,0,0,1,.9.9v7.15a0,0,0,0,1,0,0H3.95a0,0,0,0,1,0,0V36.9A.9.9,0,0,1,4.85,36Z"/><rect class="cls-5" x="6.79" y="36.03" width="5.68" height="6.97"/><rect class="cls-6" x="3.95" y="43.11" width="11.37" height="0.95"/><rect class="cls-7" x="3" y="43.58" width="13.26" height="1.42" rx="0.54" ry="0.54"/><path class="cls-8" d="M7.89,43.58l.22.33a.31.31,0,0,0,.26.14h2.51a.31.31,0,0,0,.26-.14l.22-.33Z"/><path class="cls-9" d="M19.22,36h9.56a.9.9,0,0,1,.9.9v7.15a0,0,0,0,1,0,0H18.32a0,0,0,0,1,0,0V36.9A.9.9,0,0,1,19.22,36Z"/><rect class="cls-10" x="21.16" y="36.03" width="5.68" height="6.97"/><rect class="cls-11" x="18.32" y="43.11" width="11.37" height="0.95"/><rect class="cls-12" x="17.37" y="43.58" width="13.26" height="1.42" rx="0.54" ry="0.54"/><path class="cls-13" d="M22.26,43.58l.22.33a.31.31,0,0,0,.26.14h2.51a.31.31,0,0,0,.26-.14l.22-.33Z"/><path class="cls-14" d="M33.59,36h9.56a.9.9,0,0,1,.9.9v7.15a0,0,0,0,1,0,0H32.68a0,0,0,0,1,0,0V36.9A.9.9,0,0,1,33.59,36Z"/><rect class="cls-15" x="35.53" y="36.03" width="5.68" height="6.97"/><rect class="cls-16" x="32.68" y="43.11" width="11.37" height="0.95"/><rect class="cls-17" x="31.74" y="43.58" width="13.26" height="1.42" rx="0.54" ry="0.54"/><path class="cls-18" d="M36.63,43.58l.22.33a.31.31,0,0,0,.26.14h2.51a.31.31,0,0,0,.26-.14l.22-.33Z"/><circle class="cls-19" cx="24" cy="18.75" r="5.25"/><path class="cls-20" d="M21,19.12v3.95a5.23,5.23,0,0,0,5.95,0V17.62l-4.14,2.15Z"/><path class="cls-21" d="M26.74,16.8l-.21-.21a.8.8,0,0,0-1.13,0l-2.2,2.2-.6-.6a.8.8,0,0,0-1.13,0l-.21.21a.8.8,0,0,0,0,1.13l1.16,1.16h0l.21.21a.8.8,0,0,0,1.13,0L24,20.7h0l2.76-2.76A.8.8,0,0,0,26.74,16.8Z"/></svg>